<?xml version="1.0" standalone="no"?>
<!DOCTYPE svg PUBLIC "-//W3C//DTD SVG 20010904//EN"
 "http://www.w3.org/TR/2001/REC-SVG-20010904/DTD/svg10.dtd">
<svg version="1.0" xmlns="http://www.w3.org/2000/svg"
 width="225.000000pt" height="225.000000pt" viewBox="0 0 225.000000 225.000000"
 preserveAspectRatio="xMidYMid meet">

<g transform="translate(0.000000,225.000000) scale(0.100000,-0.100000)"
fill="#000000" stroke="none">
<path d="M690 705 c0 -13 36 -15 260 -15 224 0 260 2 260 15 0 13 -36 15 -260
15 -224 0 -260 -2 -260 -15z"/>
<path d="M1320 705 c0 -12 20 -15 120 -15 100 0 120 3 120 15 0 13 -20 15
-120 15 -100 0 -120 -2 -120 -15z"/>
<path d="M690 425 c0 -13 55 -15 435 -15 380 0 435 2 435 15 0 13 -55 15 -435
15 -380 0 -435 -2 -435 -15z"/>
</g>
</svg>
